<svg width="40px" height="25px" viewBox="0 0 750 471" version="1.1" xmlns="http://www.w3.org/2000/svg" xmlns:xlink="http://www.w3.org/1999/xlink">
    <desc>Created with Sketch.</desc>
    <defs></defs>
    <g id="Page-1" stroke="none" stroke-width="1" fill="none" fill-rule="evenodd">
        <g id="mastercard" fill-rule="nonzero">
            <rect id="Rectangle-1" fill="#000000" x="0" y="0" width="750" height="471" rx="40"></rect>
            <g id="Group" transform="translate(133.000000, 48.000000)">
                <path d="M88.13,373.67 L88.13,348.82 C88.13,339.29 82.33,333.08 72.81,333.08 C67.81,333.08 62.46,334.74 58.73,340.08 C55.83,335.52 51.73,333.08 45.48,333.08 C40.7599149,332.876008 36.2525337,335.054575 33.48,338.88 L33.48,333.88 L25.61,333.88 L25.61,373.64 L33.48,373.64 L33.48,350.89 C33.48,343.89 37.62,340.54 43.42,340.54 C49.22,340.54 52.53,344.27 52.53,350.89 L52.53,373.67 L60.4,373.67 L60.4,350.89 C60.4,343.89 64.54,340.54 70.34,340.54 C76.14,340.54 79.45,344.27 79.45,350.89 L79.45,373.67 L88.13,373.67 Z ..." id="Shape" fill="#FFFFFF"></path>
                <g>
                    <rect id="Rectangle-path" fill="#FF5F00" x="170.55" y="32.39" width="143.72" height="234.42"></rect>
                    <path d="M185.05,149.6 C185.05997,103.912554 205.96046,60.7376085 241.79,32.39 C180.662018,-15.6713968 92.8620037,-8.68523415 40.103462,48.4380037 C-12.6550796,105.561241 -12.6550796,193.638759 40.103462,250.761996 C92.8620037,307.885234 180.662018,314.871397 241.79,266.81 C205.96046,238.462391 185.05997,195.287446 185.05,149.6 Z" id="Shape" fill="#EB001B"></path>
                    <path d="M483.26,149.6 C483.30134,206.646679 450.756789,258.706022 399.455617,283.656273 C348.154445,308.606523 287.109181,302.064451 242.26,266.81 C278.098424,238.46936 299.001593,195.290092 299.001593,149.6 C299.001593,103.909908 278.098424,60.7306402 242.26,32.39 C287.109181,-2.86445052 348.154445,-9.40652324 399.455617,15.5437274 C450.756789,40.493978 483.30134,92.5533211 483.26,149.6 Z" id="Shape" fill="#F79E1B"></path>
                </g>
            </g>
        </g>
    </g>
</svg>
